# xmcd
#
# Track frame offsets: 
#        150
#        19842
#        32435
#        48015
#        60207
#        90397
#        102827
#        117752
#        133005
#        154325
#        172190
#        191202
#
# Disc length: 2783 seconds
#
# Revision: 0
# Processed by: cddbd v1.5.1PL0 Copyright (c) Steve Scherf et al.
# Submitted via: ExactAudioCopy v0.95a5
#
DISCID=920add0c
DTITLE=Various Artist - Unsealed-A Tribute to the Go-Go's
DYEAR=1900
DGENRE=A Cappella
TTITLE0=Fig Dish - Head Over Heels
TTITLE1=Pinehurst Kids - How Much More
TTITLE2=Sunset Valley - Automatic
TTITLE3=Chainsaw Kittens - We Got the Beat
TTITLE4=Season to Risk - This Town
TTITLE5=Truly - Our Lips are Sealed
TTITLE6=The Frogs - Vacation
TTITLE7=Bo Bud Greene - This Old Feeling
TTITLE8=The Blank Theory - Get Up and Go
TTITLE9=Monkey Paw - Lust to Love
TTITLE10=Sugarsmack - Turn to You
TTITLE11=Allon Beausoliel - Medley
EXTD=
EXTT0=
EXTT1=
EXTT2=
EXTT3=
EXTT4=
EXTT5=
EXTT6=
EXTT7=
EXTT8=
EXTT9=
EXTT10=
EXTT11=
PLAYORDER=
